<svg xmlns="http://www.w3.org/2000/svg" viewBox="0 0 400 280" width="400" height="280">
  <defs>
    <linearGradient id="lbg" x1="0" y1="0" x2="0" y2="1">
      <stop offset="0%" stop-color="#f0e8ee"/>
      <stop offset="100%" stop-color="#dcd1da"/>
    </linearGradient>
  </defs>
  <rect width="400" height="280" rx="10" fill="url(#lbg)"/>
  <rect x="0" y="0" width="400" height="40" fill="#6b2d63"/>
  <text x="20" y="26" font-family="Inter, system-ui" font-size="18" font-weight="700" fill="#fff">Lonart</text>
  <text x="380" y="26" text-anchor="end" font-family="Inter, system-ui" font-size="11" font-weight="500" fill="#fff" opacity="0.85">artemether / lumefantrine</text>
  <!-- Strength -->
  <rect x="20" y="60" width="100" height="34" rx="4" fill="#6b2d63"/>
  <text x="70" y="83" text-anchor="middle" font-family="Inter, system-ui" font-size="14" font-weight="700" fill="#fff">80 / 480 mg</text>
  <!-- Capsule illustration -->
  <g transform="translate(240, 96)">
    <ellipse cx="40" cy="20" rx="38" ry="14" fill="#fff" stroke="#a991a8"/>
    <line x1="2" y1="20" x2="78" y2="20" stroke="#a991a8" stroke-dasharray="2 2"/>
    <ellipse cx="40" cy="44" rx="38" ry="14" fill="#fff" stroke="#a991a8"/>
    <line x1="2" y1="44" x2="78" y2="44" stroke="#a991a8" stroke-dasharray="2 2"/>
  </g>
  <text x="20" y="118" font-family="Inter, system-ui" font-size="11" fill="#522446">Anti-malarial · adult dose</text>
  <!-- Batch -->
  <rect x="20" y="220" width="170" height="44" rx="4" fill="#fff" stroke="#a991a8"/>
  <text x="28" y="236" font-family="JetBrains Mono, monospace" font-size="9" fill="#6a4c63">BATCH</text>
  <text x="28" y="250" font-family="JetBrains Mono, monospace" font-size="11" font-weight="700" fill="#39192f">LP-LON-2026-001</text>
  <text x="120" y="236" font-family="JetBrains Mono, monospace" font-size="9" fill="#6a4c63">EXP</text>
  <text x="120" y="250" font-family="JetBrains Mono, monospace" font-size="11" font-weight="700" fill="#39192f">01 / 2028</text>
  <rect x="210" y="220" width="170" height="44" rx="4" fill="#6b2d63"/>
  <text x="220" y="237" font-family="Inter, system-ui" font-size="10" font-weight="600" fill="#fff">NAFDAC REG</text>
  <text x="220" y="255" font-family="JetBrains Mono, monospace" font-size="13" font-weight="700" fill="#fff">04-1492</text>
</svg>
